{
  "accessors": [
    {
      "bufferView": 2,
      "componentType": 5126,
      "count": 6621,
      "max": [
        64.121307373046875,
        80.099418640136719,
        -319.37667846679688
      ],
      "min": [
        60.626323699951172,
        55.910556793212891,
        -404.64788818359375
      ],
      "type": "VEC3"
    },
    {
      "bufferView": 2,
      "byteOffset": 79452,
      "componentType": 5126,
      "count": 6621,
      "max": [
        1,
        1,
        0.99977940320968628
      ],
      "min": [
        -1,
        -1,
        -0.99977940320968628
      ],
      "type": "VEC3"
    },
    {
      "bufferView": 3,
      "componentType": 5126,
      "count": 6621,
      "max": [
        1,
        1,
        1,
        1
      ],
      "min": [
        -0.99999982118606567,
        -0.98701763153076172,
        -1,
        -1
      ],
      "type": "VEC4"
    },
    {
      "bufferView": 1,
      "componentType": 5126,
      "count": 6621,
      "max": [
        0.89281022548675537,
        0.99800801277160645
      ],
      "min": [
        0.0017820565262809396,
        0.52982336282730103
      ],
      "type": "VEC2"
    },
    {
      "bufferView": 0,
      "componentType": 5125,
      "count": 23856,
      "max": [
        6620
      ],
      "min": [
        0
      ],
      "type": "SCALAR"
    },
    {
      "bufferView": 2,
      "byteOffset": 158904,
      "componentType": 5126,
      "count": 2728,
      "max": [
        63.555229187011719,
        86.841415405273438,
        -307.9171142578125
      ],
      "min": [
        -5.6074676513671875,
        12.389949798583984,
        -415.78955078125
      ],
      "type": "VEC3"
    },
    {
      "bufferView": 2,
      "byteOffset": 191640,
      "componentType": 5126,
      "count": 2728,
      "max": [
        1,
        1,
        1
      ],
      "min": [
        -1,
        -1,
        -1
      ],
      "type": "VEC3"
    },
    {
      "bufferView": 3,
      "byteOffset": 105936,
      "componentType": 5126,
      "count": 2728,
      "max": [
        1,
        1,
        1,
        1
      ],
      "min": [
        -0.92500901222229004,
        -1,
        -1,
        1
      ],
      "type": "VEC4"
    },
    {
      "bufferView": 1,
      "byteOffset": 52968,
      "componentType": 5126,
      "count": 2728,
      "max": [
        0.89281034469604492,
        0.97589147090911865
      ],
      "min": [
        0.001782060251571238,
        0.0019920321647077799
      ],
      "type": "VEC2"
    },
    {
      "bufferView": 0,
      "byteOffset": 95424,
      "componentType": 5125,
      "count": 9444,
      "max": [
        2727
      ],
      "min": [
        0
      ],
      "type": "SCALAR"
    },
    {
      "bufferView": 2,
      "byteOffset": 224376,
      "componentType": 5126,
      "count": 98,
      "max": [
        63.555229187011719,
        89.29150390625,
        -307.9171142578125
      ],
      "min": [
        -5.6074676513671875,
        86.841415405273438,
        -415.78955078125
      ],
      "type": "VEC3"
    },
    {
      "bufferView": 2,
      "byteOffset": 225552,
      "componentType": 5126,
      "count": 98,
      "max": [
        1,
        1,
        1
      ],
      "min": [
        -1,
        0,
        -1
      ],
      "type": "VEC3"
    },
    {
      "bufferView": 3,
      "byteOffset": 149584,
      "componentType": 5126,
      "count": 98,
      "max": [
        1,
        1,
        2.9429120331769809e-05,
        1
      ],
      "min": [
        0,
        -1,
        -3.5584657780418638e-06,
        1
      ],
      "type": "VEC4"
    },
    {
      "bufferView": 1,
      "byteOffset": 74792,
      "componentType": 5126,
      "count": 98,
      "max": [
        0.44153642654418945,
        0.82701975107192993
      ],
      "min": [
        0.0017820610664784908,
        0.0019920335616916418
      ],
      "type": "VEC2"
    },
    {
      "bufferView": 0,
      "byteOffset": 133200,
      "componentType": 5125,
      "count": 264,
      "max": [
        97
      ],
      "min": [
        0
      ],
      "type": "SCALAR"
    }
  ],
  "asset": {
    "extras": {
      "author": "SmolShadyStudios (https://sketchfab.com/SmolShadyStudios)",
      "license": "CC-BY-4.0 (http://creativecommons.org/licenses/by/4.0/)",
      "source": "https://sketchfab.com/3d-models/horror-night-stand-76a5c12f69324cf9b97fb3fea0c83318",
      "title": "Horror Night Stand"
    },
    "generator": "Sketchfab-9.94.0",
    "version": "2.0"
  },
  "bufferViews": [
    {
      "buffer": 0,
      "byteLength": 134256,
      "byteOffset": 0,
      "name": "floatBufferViews",
      "target": 34963
    },
    {
      "buffer": 0,
      "byteLength": 75576,
      "byteOffset": 134256,
      "byteStride": 8,
      "name": "floatBufferViews",
      "target": 34962
    },
    {
      "buffer": 0,
      "byteLength": 226728,
      "byteOffset": 209832,
      "byteStride": 12,
      "name": "floatBufferViews",
      "target": 34962
    },
    {
      "buffer": 0,
      "byteLength": 151152,
      "byteOffset": 436560,
      "byteStride": 16,
      "name": "floatBufferViews",
      "target": 34962
    }
  ],
  "buffers": [
    {
      "byteLength": 587712,
      "uri": "scene.bin"
    }
  ],
  "images": [
    {
      "uri": "textures/somemetal_baseColor.png"
    },
    {
      "uri": "textures/somemetal_metallicRoughness.png"
    },
    {
      "uri": "textures/somemetal_normal.png"
    },
    {
      "uri": "textures/darkwood_baseColor.png"
    },
    {
      "uri": "textures/darkwood_metallicRoughness.png"
    },
    {
      "uri": "textures/darkwood_normal.png"
    },
    {
      "uri": "textures/lightmarble_baseColor.png"
    },
    {
      "uri": "textures/lightmarble_metallicRoughness.png"
    },
    {
      "uri": "textures/lightmarble_normal.png"
    }
  ],
  "materials": [
    {
      "doubleSided": true,
      "emissiveFactor": [
        0,
        0,
        0
      ],
      "name": "somemetal",
      "normalTexture": {
        "index": 2,
        "scale": 1,
        "texCoord": 0
      },
      "pbrMetallicRoughness": {
        "baseColorFactor": [
          1,
          1,
          1,
          1
        ],
        "baseColorTexture": {
          "index": 0,
          "texCoord": 0
        },
        "metallicFactor": 1,
        "metallicRoughnessTexture": {
          "index": 1,
          "texCoord": 0
        },
        "roughnessFactor": 1
      }
    },
    {
      "doubleSided": true,
      "emissiveFactor": [
        0,
        0,
        0
      ],
      "name": "darkwood",
      "normalTexture": {
        "index": 5,
        "scale": 1,
        "texCoord": 0
      },
      "pbrMetallicRoughness": {
        "baseColorFactor": [
          1,
          1,
          1,
          1
        ],
        "baseColorTexture": {
          "index": 3,
          "texCoord": 0
        },
        "metallicFactor": 1,
        "metallicRoughnessTexture": {
          "index": 4,
          "texCoord": 0
        },
        "roughnessFactor": 1
      }
    },
    {
      "doubleSided": true,
      "emissiveFactor": [
        0,
        0,
        0
      ],
      "name": "lightmarble",
      "normalTexture": {
        "index": 8,
        "scale": 1,
        "texCoord": 0
      },
      "pbrMetallicRoughness": {
        "baseColorFactor": [
          1,
          1,
          1,
          1
        ],
        "baseColorTexture": {
          "index": 6,
          "texCoord": 0
        },
        "metallicFactor": 1,
        "metallicRoughnessTexture": {
          "index": 7,
          "texCoord": 0
        },
        "roughnessFactor": 1
      }
    }
  ],
  "meshes": [
    {
      "name": "knobs_somemetal_0",
      "primitives": [
        {
          "attributes": {
            "NORMAL": 1,
            "POSITION": 0,
            "TANGENT": 2,
            "TEXCOORD_0": 3
          },
          "indices": 4,
          "material": 0,
          "mode": 4
        }
      ]
    },
    {
      "name": "knobs_darkwood_0",
      "primitives": [
        {
          "attributes": {
            "NORMAL": 6,
            "POSITION": 5,
            "TANGENT": 7,
            "TEXCOORD_0": 8
          },
          "indices": 9,
          "material": 1,
          "mode": 4
        }
      ]
    },
    {
      "name": "knobs_lightmarble_0",
      "primitives": [
        {
          "attributes": {
            "NORMAL": 11,
            "POSITION": 10,
            "TANGENT": 12,
            "TEXCOORD_0": 13
          },
          "indices": 14,
          "material": 2,
          "mode": 4
        }
      ]
    }
  ],
  "nodes": [
    {
      "children": [
        1
      ],
      "name": "RootNode (gltf orientation matrix)",
      "rotation": [
        -0.70710678118654746,
        -0,
        -0,
        0.70710678118654757
      ]
    },
    {
      "children": [
        2
      ],
      "name": "RootNode (model correction matrix)"
    },
    {
      "children": [
        3
      ],
      "matrix": [
        1,
        0,
        0,
        0,
        0,
        0,
        1,
        0,
        0,
        -1,
        0,
        0,
        0,
        0,
        0,
        1
      ],
      "name": "nightstand.fbx"
    },
    {
      "children": [
        4
      ],
      "name": "RootNode"
    },
    {
      "children": [
        5,
        6,
        7
      ],
      "name": "knobs"
    },
    {
      "mesh": 0,
      "name": "knobs_somemetal_0"
    },
    {
      "mesh": 1,
      "name": "knobs_darkwood_0"
    },
    {
      "mesh": 2,
      "name": "knobs_lightmarble_0"
    }
  ],
  "samplers": [
    {
      "magFilter": 9729,
      "minFilter": 9987,
      "wrapS": 10497,
      "wrapT": 10497
    }
  ],
  "scene": 0,
  "scenes": [
    {
      "name": "OSG_Scene",
      "nodes": [
        0
      ]
    }
  ],
  "textures": [
    {
      "sampler": 0,
      "source": 0
    },
    {
      "sampler": 0,
      "source": 1
    },
    {
      "sampler": 0,
      "source": 2
    },
    {
      "sampler": 0,
      "source": 3
    },
    {
      "sampler": 0,
      "source": 4
    },
    {
      "sampler": 0,
      "source": 5
    },
    {
      "sampler": 0,
      "source": 6
    },
    {
      "sampler": 0,
      "source": 7
    },
    {
      "sampler": 0,
      "source": 8
    }
  ]
}

